<svg id="ce2b4d6d-93fb-419e-bcd1-f63c506f016b" data-name="bbt logo 2" xmlns="http://www.w3.org/2000/svg" viewBox="0 0 87 87"><title>bbt_logo2</title><circle cx="43.5" cy="43.5" r="43.5" fill="#006068"/><path d="M171.56,153.21a9.85,9.85,0,0,0,5-8.71c0-6-5.15-10.78-11.65-10.78H147.62v44.44h17.91c9.48,0,13.93-6.34,13.93-13C179.46,159.73,177.59,155.82,171.56,153.21ZM157,140.29l9.08,5.24L157,150.78Zm4.54,35a1,1,0,1,1,1-1A1,1,0,0,1,161.55,175.31Zm7.13-4.82a1.67,1.67,0,0,1-1.67,1.67H156.1a1.67,1.67,0,0,1-1.67-1.67v-13a1.67,1.67,0,0,1,1.67-1.67H167a1.67,1.67,0,0,1,1.67,1.67Z" transform="translate(-101.33 -110.82)"/><path d="M126.91,133.7c-6.58,0-11.8,4.78-11.81,10.76a9.88,9.88,0,0,0,5.09,8.72c-6.11,2.6-8,6.51-8,12,0,6.63,4.49,13,14.08,13l18.14,0,.06-44.44Zm-4.25,6.61,1,1.9h0A1.76,1.76,0,0,0,126,141l-.88-1.77a2.55,2.55,0,0,1,2.07,3.28l2.21,2.21,3.55-3.55a1.82,1.82,0,0,1,2.91-1.17l-1.39.62a1.27,1.27,0,0,0,.79,1.76l1.29-.57a1.83,1.83,0,0,1-2.27,1.42l-3.19,3.18,3.55,3.55a1.8,1.8,0,0,1,1.06.57,1.82,1.82,0,0,1,.11,2.34l-.62-1.38a1.26,1.26,0,0,0-1.76.78l.58,1.3a1.89,1.89,0,0,1-1-.56,1.86,1.86,0,0,1-.42-1.72l-3.18-3.18-2.21,2.2a2.56,2.56,0,0,1-3.91,2.86l1.91-1a1.76,1.76,0,0,0-1.2-2.41h0l-1.78.88a2.56,2.56,0,0,1,3.29-2.07l2.21-2.21-2.21-2.2a2.56,2.56,0,0,1-2.86-3.91Zm16.45,25.95h0a.11.11,0,0,1-.09.12l-1.85.3a.58.58,0,0,0-.47.44,7,7,0,0,1-.77,1.84.59.59,0,0,0,0,.65l1.08,1.52a.11.11,0,0,1,0,.15l-1.31,1.31a.12.12,0,0,1-.08,0l-.07,0L134,171.52a.61.61,0,0,0-.65,0,7.07,7.07,0,0,1-1.84.76.58.58,0,0,0-.43.47l-.32,1.85a.11.11,0,0,1-.11.1h-1.85a.12.12,0,0,1-.12-.1l-.3-1.85a.59.59,0,0,0-.44-.47,7,7,0,0,1-1.8-.74.64.64,0,0,0-.3-.08.6.6,0,0,0-.34.11l-1.54,1.1-.07,0a.14.14,0,0,1-.08,0l-1.31-1.31a.12.12,0,0,1,0-.15l1.08-1.51a.61.61,0,0,0,0-.65,6.8,6.8,0,0,1-.78-1.84.59.59,0,0,0-.47-.43l-1.86-.32a.12.12,0,0,1-.1-.12v-1.85a.12.12,0,0,1,.1-.11l1.83-.31a.6.6,0,0,0,.48-.44,6.85,6.85,0,0,1,.75-1.84.57.57,0,0,0,0-.64l-1.09-1.54a.12.12,0,0,1,0-.15l1.31-1.31a.12.12,0,0,1,.08,0,.09.09,0,0,1,.07,0l1.51,1.08a.63.63,0,0,0,.66,0,7.18,7.18,0,0,1,1.83-.77.6.6,0,0,0,.44-.47l.31-1.86a.12.12,0,0,1,.12-.1h1.85a.11.11,0,0,1,.11.1l.31,1.83a.6.6,0,0,0,.44.48,6.71,6.71,0,0,1,1.88.77.59.59,0,0,0,.65,0l1.52-1.09.06,0a.14.14,0,0,1,.09,0l1.31,1.31a.12.12,0,0,1,0,.15L136,161.06a.61.61,0,0,0,0,.65,6.75,6.75,0,0,1,.76,1.84.58.58,0,0,0,.48.43l1.84.32a.11.11,0,0,1,.1.11Z" transform="translate(-101.33 -110.82)"/><path d="M163.93,134.05l-6.65-2.79a3.74,3.74,0,0,0-1.39-.27l-4,0a2,2,0,0,1,.21,2.51h0l-2,2.77L149,137.83l1.93-1.5a5.82,5.82,0,0,1,3.8-1.13l8.65.35C164.47,135.59,164.92,134.46,163.93,134.05Z" transform="translate(-101.33 -110.82)" fill="#fff"/><polygon points="42.74 28.2 42.74 67.4 46.79 67.4 46.79 28.2 46.24 28.2 43.3 28.2 42.74 28.2" fill="#fff"/><path d="M140.48,133.6a1.29,1.29,0,0,1-.34-1.68,12.36,12.36,0,0,1-6.09-1.23,5.67,5.67,0,0,0,0,6.74,12.21,12.21,0,0,1,8.9,0,3.68,3.68,0,0,0-.33-1.38A7.23,7.23,0,0,0,140.48,133.6Z" transform="translate(-101.33 -110.82)" fill="#fff"/><polygon points="32.72 19.6 27.43 19.6 27.43 26.75 32.72 26.75 32.72 26.61 32.72 19.87 32.72 19.6" fill="#fff"/><path d="M152.1,133.47h0a2,2,0,0,0-.21-2.51,1,1,0,0,0-.69-.27H141a1.11,1.11,0,0,0-1,.63,2,2,0,0,0,.07,2.15l2,2.77.85,1.19.78,1.08a1.11,1.11,0,0,0,.9.51h2.94a1.12,1.12,0,0,0,.9-.51l.49-.68,1.14-1.59Z" transform="translate(-101.33 -110.82)" fill="#fff"/></svg>