<svg id="a1af8965-456b-4919-9d99-6580268c0c7e" data-name="bbt logo 3" xmlns="http://www.w3.org/2000/svg" viewBox="0 0 87 87"><title>bbt_logo3</title><circle cx="43.5" cy="43.5" r="43.5" fill="#522a44"/><path d="M75.51,153.9a9.87,9.87,0,0,0,5-8.71c0-6-5.16-10.79-11.65-10.79H51.57v44.44H69.48c9.49,0,13.94-6.34,13.94-13C83.42,160.41,81.54,156.5,75.51,153.9ZM61,141l9.08,5.24L61,151.46Zm4.54,35a1,1,0,1,1,1-1A1,1,0,0,1,65.51,176Zm7.12-4.82A1.68,1.68,0,0,1,71,172.85H60.05a1.69,1.69,0,0,1-1.67-1.68v-13a1.68,1.68,0,0,1,1.67-1.67H71a1.67,1.67,0,0,1,1.67,1.67Z" transform="translate(-5.28 -111.5)"/><path d="M30.86,134.38c-6.57,0-11.79,4.78-11.8,10.76a9.84,9.84,0,0,0,5.08,8.72c-6.11,2.6-8,6.51-8,12,0,6.63,4.49,13,14.09,13l18.13,0,.06-44.44ZM26.62,141l.94,1.9h0a1.77,1.77,0,0,0,2.42-1.2l-.88-1.77a2.56,2.56,0,0,1,2.07,3.28l2.2,2.21,3.55-3.55a1.77,1.77,0,0,1,.57-1.05,1.83,1.83,0,0,1,2.34-.12l-1.38.62a1.26,1.26,0,0,0,.78,1.76l1.29-.57a1.82,1.82,0,0,1-2.27,1.42l-3.19,3.18,3.55,3.55a1.8,1.8,0,0,1,1.06.57,1.83,1.83,0,0,1,.11,2.35l-.62-1.39a1.26,1.26,0,0,0-1.76.78l.58,1.3a1.8,1.8,0,0,1-1-.56,1.83,1.83,0,0,1-.42-1.72l-3.19-3.18-2.2,2.2a2.6,2.6,0,0,1-.64,2.57,2.55,2.55,0,0,1-3.27.29l1.9-.94A1.77,1.77,0,0,0,28,150.5h0l-1.77.88a2.46,2.46,0,0,1,.72-1.43,2.54,2.54,0,0,1,2.56-.64l2.21-2.21-2.21-2.2A2.56,2.56,0,0,1,26.62,141Zm16.44,25.95h0a.12.12,0,0,1-.1.12l-1.84.3a.6.6,0,0,0-.48.44,7.22,7.22,0,0,1-.76,1.84.61.61,0,0,0,0,.65L41,171.82a.12.12,0,0,1,0,.15l-1.31,1.31a.1.1,0,0,1-.08,0l-.06,0L38,172.2a.61.61,0,0,0-.65,0,7.07,7.07,0,0,1-1.84.76.58.58,0,0,0-.43.48l-.31,1.84a.12.12,0,0,1-.12.1H32.79a.11.11,0,0,1-.11-.1l-.31-1.84a.59.59,0,0,0-.44-.48,7.2,7.2,0,0,1-1.8-.74.61.61,0,0,0-.3-.08.62.62,0,0,0-.34.11L28,173.33l-.06,0a.1.1,0,0,1-.09,0L26.49,172a.11.11,0,0,1,0-.14l1.08-1.52a.59.59,0,0,0,0-.65,7.13,7.13,0,0,1-.78-1.84.59.59,0,0,0-.47-.43l-1.86-.32a.12.12,0,0,1-.1-.11v-1.85a.12.12,0,0,1,.1-.12l1.83-.31a.58.58,0,0,0,.48-.44,7.57,7.57,0,0,1,.75-1.84.57.57,0,0,0,0-.64l-1.09-1.54a.12.12,0,0,1,0-.15l1.31-1.31a.11.11,0,0,1,.09,0,.07.07,0,0,1,.06,0l1.52,1.08a.61.61,0,0,0,.65,0,7.1,7.1,0,0,1,1.84-.77.59.59,0,0,0,.43-.47l.32-1.86a.11.11,0,0,1,.11-.1h1.85a.12.12,0,0,1,.12.1l.3,1.83a.6.6,0,0,0,.44.48,7.43,7.43,0,0,1,1.89.77.59.59,0,0,0,.64,0l1.52-1.09a.09.09,0,0,1,.07,0,.14.14,0,0,1,.08,0L41,160.07a.12.12,0,0,1,0,.15l-1.08,1.52a.59.59,0,0,0,0,.65,6.88,6.88,0,0,1,.76,1.84.6.6,0,0,0,.48.44L43,165a.12.12,0,0,1,.09.11Z" transform="translate(-5.28 -111.5)"/><path d="M67.89,134.73,61.24,132a3.64,3.64,0,0,0-1.4-.28l-4,0a2,2,0,0,1,.21,2.51h0l-2,2.77-1.14,1.59,1.93-1.5a5.92,5.92,0,0,1,3.81-1.13l8.64.35C68.42,136.27,68.87,135.14,67.89,134.73Z" transform="translate(-5.28 -111.5)" fill="#fff"/><polygon points="42.74 28.2 42.74 67.4 46.79 67.4 46.79 28.2 46.24 28.2 43.3 28.2 42.74 28.2" fill="#fff"/><path d="M44.43,134.28a1.3,1.3,0,0,1-.33-1.68A12.34,12.34,0,0,1,38,131.37a5.64,5.64,0,0,0,0,6.74,12.18,12.18,0,0,1,8.89,0,3.68,3.68,0,0,0-.33-1.38A7.13,7.13,0,0,0,44.43,134.28Z" transform="translate(-5.28 -111.5)" fill="#fff"/><polygon points="32.72 19.6 27.43 19.6 27.43 26.75 32.72 26.75 32.72 26.61 32.72 19.87 32.72 19.6" fill="#fff"/><path d="M56.05,134.15h0a2,2,0,0,0-.21-2.51,1,1,0,0,0-.68-.27H44.94a1.15,1.15,0,0,0-1,.63,2,2,0,0,0,.08,2.15l2,2.77.85,1.19.78,1.08a1.12,1.12,0,0,0,.9.51h2.94a1.12,1.12,0,0,0,.9-.51l.49-.68,1.14-1.59Z" transform="translate(-5.28 -111.5)" fill="#fff"/></svg>